<svg xmlns="http://www.w3.org/2000/svg" width="64" height="64" viewBox="0 0 64 64" role="img" aria-labelledby="title"><title id="title">YAML file icon</title><path d="M16 4h24l13 13v38a5 5 0 0 1-5 5H16a5 5 0 0 1-5-5V9a5 5 0 0 1 5-5Z" fill="#FDFEFF" stroke="#D3DFEC" stroke-width="1.5"/><path d="M40 4v9a4 4 0 0 0 4 4h9Z" fill="#805AB9" opacity=".17"/><g fill="none" stroke="#805AB9" stroke-width="2" stroke-linecap="round" stroke-linejoin="round"><path d="M27 21c-3 0-3 2-3 4v2c0 2-1 2-3 2 2 0 3 1 3 3v2c0 3 0 4 3 4m10-17c3 0 3 2 3 4v2c0 2 1 2 3 2-2 0-3 1-3 3v2c0 3 0 4-3 4"/></g><rect x="16" y="42" width="32" height="14" rx="4" fill="#805AB9"/><g fill="#FFF"><path d="M18.14 44.78H19.95L21.41 47.07L22.87 44.78H24.68L22.24 48.5V51.2H20.59V48.5Z"/><path d="M29.3 50.03H26.71L26.3 51.2H24.64L27.02 44.78H28.99L31.37 51.2H29.7ZM27.13 48.84H28.88L28.01 46.29Z"/><path d="M32.22 44.78H34.32L35.78 48.22L37.25 44.78H39.35V51.2H37.79V46.51L36.31 49.97H35.26L33.79 46.51V51.2H32.22Z"/><path d="M40.97 44.78H42.63V49.95H45.53V51.2H40.97Z"/></g></svg>