<svg xmlns="http://www.w3.org/2000/svg" width="64" height="64" viewBox="0 0 64 64" role="img" aria-labelledby="title"><title id="title">XML file icon</title><path d="M16 4h24l13 13v38a5 5 0 0 1-5 5H16a5 5 0 0 1-5-5V9a5 5 0 0 1 5-5Z" fill="#FDFEFF" stroke="#D3DFEC" stroke-width="1.5"/><path d="M40 4v9a4 4 0 0 0 4 4h9Z" fill="#446EAB" opacity=".17"/><g fill="none" stroke="#446EAB" stroke-width="2" stroke-linecap="round" stroke-linejoin="round"><path d="m28 23-6 6 6 6m8-12 6 6-6 6m-3-15-3 18"/></g><rect x="16" y="42" width="32" height="14" rx="4" fill="#446EAB"/><g fill="#FFF"><path d="M24.96 47.48 27.49 51.2H25.54L23.83 48.71L22.14 51.2H20.17L22.7 47.48L20.27 43.91H22.23L23.83 46.26L25.42 43.91H27.4Z"/><path d="M28.61 43.91H31L32.66 47.81L34.33 43.91H36.72V51.2H34.94V45.87L33.26 49.8H32.07L30.39 45.87V51.2H28.61Z"/><path d="M38.56 43.91H40.44V49.78H43.74V51.2H38.56Z"/></g></svg>