<svg xmlns="http://www.w3.org/2000/svg" viewBox="0 0 512 512" role="img"><title>JAR file type</title><rect width="512" height="512" fill="#fff"/><defs><linearGradient id="a" x1="256" x2="256" y1="344" y2="498" gradientUnits="userSpaceOnUse"><stop stop-color="#ff922e"/><stop offset=".48" stop-color="#ff6411"/><stop offset="1" stop-color="#e64000"/></linearGradient></defs><path fill="#ff6411" d="m364 0 130 130h-86c-24 0-44-20-44-44Z"/><path fill="#ff922e" d="M379 25v55c0 19 15 35 35 35h55Z" opacity=".34"/><g fill="none" stroke="#ff6411" stroke-linecap="round" stroke-linejoin="round" stroke-width="22"><path d="M138 145h190v62c0 54-42 84-95 84s-95-30-95-84z"/><path d="M328 166h32c49 0 49 65 0 65h-34m-212 79h250M182 119c-31-31 29-44 0-75m57 75c-31-31 29-44 0-75m57 75c-31-31 29-44 0-75"/></g><rect width="476" height="154" x="18" y="344" fill="url(#a)" rx="58"/><path fill="none" stroke="#fff" stroke-linecap="round" stroke-width="7" d="M72 355h368c23 0 41 12 47 30" opacity=".18"/><path fill="none" stroke="#000" stroke-linecap="round" stroke-width="8" d="M69 487h374c23 0 39-8 45-22" opacity=".16"/><path d="M201.02 386.848v47.432c0 4.84-2.552 7.48-7.128 7.48-5.016 0-7.128-2.464-7.128-8.36v-6.16h-13.2v6.336c0 6.688 1.584 10.824 5.368 14.344 3.696 3.344 8.624 5.104 14.696 5.104 13.112 0 20.592-6.776 20.592-18.744v-47.432zm58.544 51.216L263.788 451h13.552l-22.176-64.152h-14.608L217.764 451h13.464l4.312-12.936zm-3.608-11h-16.72l8.36-25.08zm41.296-1.496h15.136c5.72 0 8.184 2.288 8.184 7.568v2.64c-.088 1.672-.088 3.256-.088 4.224 0 6.072.352 7.92 1.936 11h14.168v-2.376c-2.024-1.144-2.816-2.464-2.816-5.28-.352-18.92-.704-19.8-8.888-23.32 7.216-2.816 10.824-8.008 10.824-15.84 0-5.104-1.76-9.768-4.84-12.936-2.904-2.992-6.952-4.4-12.408-4.4h-34.408V451h13.2zm0-11v-16.72h15.928c3.784 0 5.28.352 6.952 1.672 1.584 1.32 2.376 3.52 2.376 6.512 0 3.08-.792 5.544-2.376 6.864-1.496 1.232-3.168 1.672-6.952 1.672z" style="font-weight:800;font-size:88px;font-family:Arial,Helvetica,sans-serif;letter-spacing:-2;text-anchor:middle;fill:#fff"/></svg>