<svg xmlns="http://www.w3.org/2000/svg" viewBox="0 0 512 512" role="img"><title>JS file type</title><rect width="512" height="512" fill="#fff"/><defs><linearGradient id="a" x1="256" x2="256" y1="344" y2="498" gradientUnits="userSpaceOnUse"><stop stop-color="#35a6ff"/><stop offset=".48" stop-color="#0878f9"/><stop offset="1" stop-color="#0052bd"/></linearGradient></defs><path fill="#0878f9" d="m364 0 130 130h-86c-24 0-44-20-44-44Z"/><path fill="#35a6ff" d="M379 25v55c0 19 15 35 35 35h55Z" opacity=".34"/><path fill="none" stroke="#0878f9" stroke-linecap="round" stroke-linejoin="round" stroke-width="30" d="m178 98-82 82 82 82M322 98l82 82-82 82M282 66l-66 228"/><rect width="476" height="154" x="18" y="344" fill="url(#a)" rx="58"/><path fill="none" stroke="#fff" stroke-linecap="round" stroke-width="7" d="M72 355h368c23 0 41 12 47 30" opacity=".18"/><path fill="none" stroke="#000" stroke-linecap="round" stroke-width="8" d="M69 487h374c23 0 39-8 45-22" opacity=".16"/><path d="M230.552 381.016v51.744c0 5.28-2.784 8.16-7.776 8.16-5.472 0-7.776-2.688-7.776-9.12v-6.72h-14.4v6.912c0 7.296 1.728 11.808 5.856 15.648 4.032 3.648 9.408 5.568 16.032 5.568 14.304 0 22.464-7.392 22.464-20.448v-51.744zm77.392 21.312c-.096-14.496-9.792-22.464-27.456-22.464-16.8 0-26.496 7.872-26.496 21.504 0 10.848 5.472 16.128 19.68 18.816l9.792 1.92c9.6 1.824 13.152 4.512 13.152 10.176 0 5.856-5.376 9.408-14.112 9.408-9.792 0-15.264-4.128-15.744-11.616h-14.016c.864 14.976 11.136 23.136 28.992 23.136 18.048 0 28.704-8.352 28.704-22.656 0-11.04-5.568-16.8-18.528-19.296l-10.944-2.112c-10.272-2.016-13.248-4.032-13.248-9.12 0-5.28 4.608-8.64 12.096-8.64 9.12 0 14.208 3.84 14.688 10.944z" style="font-weight:800;font-size:96px;font-family:Arial,Helvetica,sans-serif;letter-spacing:-2;text-anchor:middle;fill:#fff"/></svg>