<svg xmlns="http://www.w3.org/2000/svg" viewBox="0 0 512 512" role="img"><title>MP3 file type</title><rect width="512" height="512" fill="#fff"/><defs><linearGradient id="a" x1="256" x2="256" y1="344" y2="498" gradientUnits="userSpaceOnUse"><stop stop-color="#9a52ff"/><stop offset=".48" stop-color="#702de8"/><stop offset="1" stop-color="#4d18c5"/></linearGradient></defs><path fill="#702de8" d="m364 0 130 130h-86c-24 0-44-20-44-44Z"/><path fill="#9a52ff" d="M379 25v55c0 19 15 35 35 35h55Z" opacity=".34"/><path fill="#702de8" d="M182 91v136c-19-12-52-7-72 13-23 22-22 53 1 66 23 14 60 4 78-20 8-11 12-22 12-35V138l133-25v92c-20-10-50-4-68 14-23 22-22 53 1 66 24 14 60 4 79-20 8-11 11-23 11-35V47Z"/><rect width="476" height="154" x="18" y="344" fill="url(#a)" rx="58"/><path fill="none" stroke="#fff" stroke-linecap="round" stroke-width="7" d="M72 355h368c23 0 41 12 47 30" opacity=".18"/><path fill="none" stroke="#000" stroke-linecap="round" stroke-width="8" d="M69 487h374c23 0 39-8 45-22" opacity=".16"/><path d="M186.544 401.016 198.072 451h13.2l11.352-49.984V451h13.2v-64.152h-19.888l-11.264 51.04-11.616-51.04h-19.712V451h13.2zm72.184 27.104h16.456c11.792 0 19.36-8.36 19.36-21.384 0-12.848-7.304-19.888-20.68-19.888h-28.336V451h13.2zm0-11v-19.272h12.32c7.04 0 10.296 3.08 10.296 9.592 0 6.6-3.256 9.68-10.296 9.68zm55.904 5.984c4.752 0 5.016 0 7.216.616 4.136 1.144 6.776 4.752 6.776 9.328 0 5.544-3.872 9.416-9.24 9.416-5.808 0-8.976-3.344-9.328-9.768h-11.968c.088 12.496 8.184 20.328 21.032 20.328 13.288 0 21.824-7.832 21.824-19.976 0-7.304-3.168-12.056-10.208-15.488 5.72-3.608 8.184-7.568 8.184-13.288 0-10.384-7.744-16.984-19.8-16.984-9.064 0-16.016 3.96-18.744 10.736-1.144 2.992-1.496 5.016-1.496 10.208h11.44c.088-3.344.352-5.016.968-6.6 1.144-2.728 3.96-4.4 7.568-4.4 4.928 0 7.744 2.992 7.744 8.184 0 6.336-3.608 9.416-10.912 9.416h-1.056z" style="font-weight:800;font-size:88px;font-family:Arial,Helvetica,sans-serif;letter-spacing:-2;text-anchor:middle;fill:#fff"/></svg>