<svg xmlns="http://www.w3.org/2000/svg" viewBox="0 0 512 512" role="img"><title>TIFF file type</title><rect width="512" height="512" fill="#fff"/><defs><linearGradient id="a" x1="256" x2="256" y1="344" y2="498" gradientUnits="userSpaceOnUse"><stop stop-color="#24c8b5"/><stop offset=".48" stop-color="#08a89d"/><stop offset="1" stop-color="#007a7a"/></linearGradient></defs><path fill="#08a89d" d="m364 0 130 130h-86c-24 0-44-20-44-44Z"/><path fill="#24c8b5" d="M379 25v55c0 19 15 35 35 35h55Z" opacity=".34"/><path d="M18 0h214c9.972 0 18 8.028 18 18v200c0 9.972-8.028 18-18 18H18c-9.972 0-18-8.028-18-18V18C0 8.028 8.028 0 18 0" style="fill:#08a89d" transform="translate(109 57)"/><path fill="#fff" d="M109 57h62v59h-62Zm125 0h63v59h-63Zm-63 59h63v59h-63Zm126 0h62v59h-62Zm-188 59h62v59h-62Zm125 0h63v59h-63zm-63 59h63v59h-63Zm126 0h62v59h-62z"/><rect width="476" height="154" x="18" y="344" fill="url(#a)" rx="58"/><path fill="none" stroke="#fff" stroke-linecap="round" stroke-width="7" d="M72 355h368c23 0 41 12 47 30" opacity=".18"/><path fill="none" stroke="#000" stroke-linecap="round" stroke-width="8" d="M69 487h374c23 0 39-8 45-22" opacity=".16"/><path d="M208.042 405.096h16.188v-9.5h-44.384v9.5h16.796V451h11.4zm31.364-9.5h-11.4V451h11.4zm19.964 31.54h24.244v-9.5H259.37v-12.54h27.512v-9.5H247.97V451h11.4zm44.436 0h24.244v-9.5h-24.244v-12.54h27.512v-9.5h-38.912V451h11.4z" style="font-weight:800;font-size:76px;font-family:Arial,Helvetica,sans-serif;letter-spacing:-2;text-anchor:middle;fill:#fff"/></svg>