<svg xmlns="http://www.w3.org/2000/svg" viewBox="0 0 512 512" role="img"><title>TTF file type</title><rect width="512" height="512" fill="#fff"/><defs><linearGradient id="a" x1="256" x2="256" y1="344" y2="498" gradientUnits="userSpaceOnUse"><stop stop-color="#9a52ff"/><stop offset=".48" stop-color="#702de8"/><stop offset="1" stop-color="#4d18c5"/></linearGradient></defs><path fill="#702de8" d="m364 0 130 130h-86c-24 0-44-20-44-44Z"/><path fill="#9a52ff" d="M379 25v55c0 19 15 35 35 35h55Z" opacity=".34"/><path d="M190.361 255v-15.361h25.137V82.852h-51.924v29.96h-17.392V65.46h187.89v47.354h-17.138V82.852h-52.305v156.787h25.264V255Z" style="font-weight:800;font-size:260px;font-family:Georgia,serif;text-anchor:middle;fill:#702de8"/><rect width="476" height="154" x="18" y="344" fill="url(#a)" rx="58"/><path fill="none" stroke="#fff" stroke-linecap="round" stroke-width="7" d="M72 355h368c23 0 41 12 47 30" opacity=".18"/><path fill="none" stroke="#000" stroke-linecap="round" stroke-width="8" d="M69 487h374c23 0 39-8 45-22" opacity=".16"/><path d="M210.436 397.848h18.744v-11h-51.392v11h19.448V451h13.2zm53.88 0h18.744v-11h-51.392v11h19.448V451h13.2zm37.072 25.52h28.072v-11h-28.072v-14.52h31.856v-11h-45.056V451h13.2z" style="font-weight:800;font-size:88px;font-family:Arial,Helvetica,sans-serif;letter-spacing:-2;text-anchor:middle;fill:#fff"/></svg>